nColumns=28
nRows=41
DataType=double
version=3
OpenSimVersion=4.1
endheader
time	ground_force_1_vx	ground_force_1_vy	ground_force_1_vz	ground_force_1_px	ground_force_1_py	ground_force_1_pz	ground_force_1_mx	ground_force_1_my	ground_force_1_mz	ground_force_2_vx	ground_force_2_vy	ground_force_2_vz	ground_force_2_px	ground_force_2_py	ground_force_2_pz	ground_force_2_mx	ground_force_2_my	ground_force_2_mz	ground_force_3_vx	ground_force_3_vy	ground_force_3_vz	ground_force_3_px	ground_force_3_py	ground_force_3_pz	ground_force_3_mx	ground_force_3_my	ground_force_3_mz
0	-2.5533	43.0284	-2.43676	-0.267982	0.006	-0.523719	0	0.388821	0	-3.63085	50.8068	0.870997	-0.25524	0.006	-0.670249	0	0.341818	0	0	0	0	0	0	0	0	0	0
0.01	-2.82838	42.3873	-2.08985	-0.268854	0.006	-0.52862	0	0.47595	0	-3.60174	50.6084	0.954816	-0.254511	0.006	-0.668578	0	0.378767	0	0	0	0	0	0	0	0	0	0
0.02	-3.01423	41.9434	-1.80407	-0.269994	0.006	-0.532515	0	0.547015	0	-3.6041	50.2882	0.952551	-0.253742	0.006	-0.667191	0	0.386547	0	0	0	0	0	0	0	0	0	0
0.03	-2.95799	42.0692	-1.88854	-0.270083	0.006	-0.531269	0	0.521413	0	-3.6659	49.8757	0.908945	-0.253897	0.006	-0.666614	0	0.378169	0	0	0	0	0	0	0	0	0	0
0.04	-2.93763	42.1361	-1.98405	-0.269605	0.006	-0.529984	0	0.505537	0	-3.67522	49.4399	0.890739	-0.253555	0.006	-0.666139	0	0.374457	0	0	0	0	0	0	0	0	0	0
0.05	-2.99771	42.0715	-1.96145	-0.269191	0.006	-0.530566	0	0.521607	0	-3.65818	49.0551	0.855982	-0.253596	0.006	-0.665802	0	0.341787	0	0	0	0	0	0	0	0	0	0
0.06	-3.05145	41.8263	-1.85731	-0.269082	0.006	-0.531969	0	0.537333	0	-3.67985	48.8789	0.833883	-0.25481	0.006	-0.665642	0	0.337141	0	0	0	0	0	0	0	0	0	0
0.07	-3.05936	41.5966	-1.81142	-0.269438	0.006	-0.532836	0	0.543458	0	-3.68647	48.6611	0.816859	-0.253745	0.006	-0.664201	0	0.348458	0	0	0	0	0	0	0	0	0	0
0.08	-3.06595	41.4417	-1.86073	-0.269844	0.006	-0.533635	0	0.541052	0	-3.68331	48.4589	0.769406	-0.253103	0.006	-0.662963	0	0.311924	0	0	0	0	0	0	0	0	0	0
0.09	-3.07359	41.3288	-1.85407	-0.269529	0.006	-0.533298	0	0.555147	0	-3.65315	48.3789	0.70155	-0.25328	0.006	-0.66286	0	0.312631	0	0	0	0	0	0	0	0	0	0
0.1	-3.07393	41.1926	-1.76687	-0.269356	0.006	-0.531717	0	0.568085	0	-3.64449	48.0932	0.622807	-0.25283	0.006	-0.661576	0	0.337521	0	0	0	0	0	0	0	0	0	0
0.11	-2.98242	40.9333	-1.72407	-0.26945	0.006	-0.531306	0	0.543367	0	-3.66412	47.8035	0.52904	-0.253546	0.006	-0.660571	0	0.311241	0	0	0	0	0	0	0	0	0	0
0.12	-2.92429	40.3728	-1.67423	-0.270349	0.006	-0.533076	0	0.520526	0	-3.63877	47.7867	0.489292	-0.25456	0.006	-0.660586	0	0.309149	0	0	0	0	0	0	0	0	0	0
0.13	-2.97872	39.9773	-1.6253	-0.270783	0.006	-0.534513	0	0.550571	0	-3.6193	47.6123	0.472136	-0.253899	0.006	-0.659743	0	0.316178	0	0	0	0	0	0	0	0	0	0
0.14	-3.05401	39.8095	-1.57756	-0.27101	0.006	-0.534499	0	0.581217	0	-3.63557	47.2781	0.421626	-0.252315	0.006	-0.658659	0	0.304598	0	0	0	0	0	0	0	0	0	0
0.15	-3.0064	39.552	-1.49616	-0.270981	0.006	-0.535153	0	0.56976	0	-3.64305	46.9837	0.361114	-0.251704	0.006	-0.658215	0	0.269686	0	0	0	0	0	0	0	0	0	0
0.16	-2.94665	39.1754	-1.4397	-0.271057	0.006	-0.536366	0	0.554517	0	-3.66604	46.6941	0.336899	-0.251771	0.006	-0.657426	0	0.233181	0	0	0	0	0	0	0	0	0	0
0.17	-2.93874	38.8196	-1.3722	-0.271254	0.006	-0.536705	0	0.565768	0	-3.64626	46.5294	0.330941	-0.252684	0.006	-0.656997	0	0.247385	0	0	0	0	0	0	0	0	0	0
0.18	-2.92521	38.6519	-1.30334	-0.27092	0.006	-0.535948	0	0.582574	0	-3.61982	46.3842	0.291205	-0.253965	0.006	-0.656814	0	0.2964	0	0	0	0	0	0	0	0	0	0
0.19	-2.91642	38.2217	-1.17216	-0.2703	0.006	-0.536436	0	0.600723	0	-3.65571	45.7996	0.251382	-0.25509	0.006	-0.655873	0	0.302448	0	0	0	0	0	0	0	0	0	0
0.2	-2.92474	37.4539	-0.995662	-0.269999	0.006	-0.538788	0	0.624967	0	-3.68385	45.1872	0.204048	-0.25526	0.006	-0.65491	0	0.24644	0	0	0	0	0	0	0	0	0	0
0.21	-2.95193	36.2877	-0.838615	-0.271283	0.006	-0.5424	0	0.644558	0	-3.67828	44.8202	0.196144	-0.253542	0.006	-0.654172	0	0.218553	0	0	0	0	0	0	0	0	0	0
0.22	-2.87301	35.2851	-0.729996	-0.272523	0.006	-0.544654	0	0.636586	0	-3.63754	44.6168	0.174499	-0.252749	0.006	-0.654417	0	0.220925	0	0	0	0	0	0	0	0	0	0
0.23	-2.59098	34.538	-0.6116	-0.272948	0.006	-0.546389	0	0.594243	0	-3.57085	44.4962	0.184373	-0.25357	0.006	-0.655214	0	0.226848	0	0	0	0	0	0	0	0	0	0
0.24	-2.32042	33.8355	-0.54569	-0.273383	0.006	-0.549174	0	0.55009	0	-3.50776	44.2551	0.147503	-0.2554	0.006	-0.654357	0	0.216336	0	0	0	0	0	0	0	0	0	0
0.25	-2.19817	33.1026	-0.526875	-0.274412	0.006	-0.551858	0	0.546126	0	-3.55107	44.0453	0.127006	-0.255994	0.006	-0.653956	0	0.206988	0	0	0	0	0	0	0	0	0	0
0.26	-2.18945	32.09	-0.470097	-0.27601	0.006	-0.555608	0	0.575343	0	-3.59783	43.7702	0.178156	-0.256135	0.006	-0.654153	0	0.210138	0	0	0	0	0	0	0	0	0	0
0.27	-2.08526	31.0135	-0.435381	-0.276677	0.006	-0.557778	0	0.563363	0	-3.64582	43.223	0.199477	-0.256938	0.006	-0.65348	0	0.199853	0	0	0	0	0	0	0	0	0	0
0.28	-1.91981	29.7079	-0.286914	-0.27781	0.006	-0.559978	0	0.558294	0	-3.72896	42.477	0.243424	-0.256975	0.006	-0.651914	0	0.207486	0	0	0	0	0	0	0	0	0	0
0.29	-1.8308	28.2914	-0.0129799	-0.279485	0.006	-0.565177	0	0.5781	0	-3.81921	41.7045	0.345219	-0.254712	0.006	-0.649582	0	0.210769	0	0	0	0	0	0	0	0	0	0
0.3	-1.79038	26.8375	0.294306	-0.282578	0.006	-0.573048	0	0.618196	0	-3.85923	41.1027	0.419766	-0.251923	0.006	-0.647438	0	0.193949	0	0	0	0	0	0	0	0	0	0
0.31	-1.73055	25.2462	0.53268	-0.286696	0.006	-0.582877	0	0.658957	0	-3.82409	40.498	0.39211	-0.252024	0.006	-0.646031	0	0.155153	0	0	0	0	0	0	0	0	0	0
0.32	-1.54329	23.8755	0.698104	-0.288964	0.006	-0.590872	0	0.629796	0	-3.8101	39.821	0.333759	-0.253817	0.006	-0.644666	0	0.104005	0	0	0	0	0	0	0	0	0	0
0.33	-1.33663	22.4766	0.86447	-0.290219	0.006	-0.598111	0	0.60608	0	-3.81343	39.2699	0.284814	-0.254734	0.006	-0.643736	0	0.0945799	0	0	0	0	0	0	0	0	0	0
0.34	-0.989378	17.7196	0.803186	-0.249782	0.0051	-0.517042	0	0.524517	0	-3.79965	38.5292	0.177728	-0.255635	0.006	-0.641044	0	0.108616	0	0	0	0	0	0	0	0	0	0
0.35	0	0	0	0	0	0	0	0	0	-3.67571	37.5902	0.0991284	-0.256989	0.006	-0.63689	0	0.140151	0	0	0	0	0	0	0	0	0	0
0.36	0	0	0	0	0	0	0	0	0	-3.56123	37.0281	0.108457	-0.258756	0.006	-0.635012	0	0.135647	0	0	0	0	0	0	0	0	0	0
0.37	0	0	0	0	0	0	0	0	0	-3.42446	36.5656	0.176866	-0.261957	0.006	-0.633976	0	0.0889779	0	0	0	0	0	0	0	0	0	0
0.38	0	0	0	0	0	0	0	0	0	-3.15934	36.2042	0.185073	-0.26327	0.006	-0.633464	0	0.0685081	0	0	0	0	0	0	0	0	0	0
0.39	0	0	0	0	0	0	0	0	0	-2.90411	35.9962	0.149506	-0.26238	0.006	-0.633147	0	0.108508	0	0	0	0	0	0	0	0	0	0
0.4	0	0	0	0	0	0	0	0	0	-2.85808	35.7377	0.102316	-0.261684	0.006	-0.632214	0	0.114723	0	0	0	0	0	0	0	0	0	0
